<svg width="56" height="56" viewBox="0 0 56 56" fill="none" xmlns="http://www.w3.org/2000/svg">
<path d="M1.75 34.6501C2.7165 34.6501 3.5 35.4336 3.5 36.4001V45.1501C3.5 47.0831 5.067 48.6501 7 48.6501H49C50.933 48.6501 52.5 47.0831 52.5 45.1501V36.4001C52.5 35.4336 53.2835 34.6501 54.25 34.6501C55.2165 34.6501 56 35.4336 56 36.4001V45.1501C56 49.0161 52.866 52.1501 49 52.1501H7C3.13401 52.1501 0 49.0161 0 45.1501V36.4001C0 35.4336 0.783502 34.6501 1.75 34.6501Z" fill="#D9EEE1"/>
<path d="M26.7626 4.01256C27.446 3.32915 28.554 3.32915 29.2374 4.01256L39.7374 14.5126C40.4209 15.196 40.4209 16.304 39.7374 16.9874C39.054 17.6709 37.946 17.6709 37.2626 16.9874L29.75 9.47487V40.25C29.75 41.2165 28.9665 42 28 42C27.0335 42 26.25 41.2165 26.25 40.25V9.47487L18.7374 16.9874C18.054 17.6709 16.946 17.6709 16.2626 16.9874C15.5791 16.304 15.5791 15.196 16.2626 14.5126L26.7626 4.01256Z" fill="#D9EEE1"/>
</svg>
