<svg width="56" height="56" viewBox="0 0 56 56" fill="none" xmlns="http://www.w3.org/2000/svg">
<path d="M7 3.5C5.06701 3.5 3.5 5.067 3.5 7V35C3.5 36.933 5.06701 38.5 7 38.5H40.5503C42.4068 38.5 44.1872 39.2375 45.5 40.5503L52.5 47.5503V7C52.5 5.067 50.933 3.5 49 3.5H7ZM49 0C52.866 0 56 3.13401 56 7V51.7751C56 53.3342 54.115 54.115 53.0126 53.0126L43.0251 43.0251C42.3688 42.3687 41.4785 42 40.5503 42H7C3.13401 42 0 38.866 0 35V7C0 3.13401 3.13401 0 7 0H49Z" fill="#D9EEE1"/>
<path d="M28 13.9746C33.8254 7.98701 48.3887 18.4653 28 31.9375C7.61127 18.4653 22.1746 7.98701 28 13.9746Z" fill="#D9EEE1"/>
</svg>
