<svg width="64" height="72" viewBox="0 0 64 72" fill="none" xmlns="http://www.w3.org/2000/svg">
<path d="M25.7466 69.7216L4.32886 58.3292L12.0757 48.3038L61.7466 41.0127V52.4051L25.7466 69.7216Z" fill="white" stroke="white"/>
<path d="M29.1268 67.966V54.1934L60.6136 38.5927V52.3192L29.1268 67.966Z" stroke="#7D4B32" stroke-width="5"/>
<path fill-rule="evenodd" clip-rule="evenodd" d="M63.1136 34.564L26.6268 52.642V66.8219C27.5058 65.1142 28.7963 63.1263 30.0066 61.262L30.0073 61.2609L30.0099 61.2568C30.1761 61.0009 30.3407 60.7473 30.5026 60.4971C32.6587 56.8855 34.9575 53.7665 36.6182 52.5717C37.1824 52.1432 37.8035 51.7593 38.3779 51.4769L38.3777 51.4688L38.5558 51.392C38.6745 51.3371 38.7907 51.287 38.9033 51.2421L41.2216 50.2423L41.2216 54.4018L41.2216 54.9894L43.6231 56.2045L50.8179 52.5835L48.5189 51.4196L48.521 51.4155H48.5189V46.616L50.7431 45.2814C50.8895 45.1801 51.08 45.0653 51.2962 44.9494L51.3627 44.9095L51.3637 44.9137C52.0318 44.5637 52.9165 44.2163 53.509 44.2163C54.4084 44.2163 56.7416 45.1946 57.6606 45.773C58.2577 46.078 58.9856 46.4857 59.8762 47.0206C61.4668 47.9757 62.4822 48.6397 63.1136 49.1204V34.564Z" fill="#7D4B32"/>
<path d="M45.8897 54.7754L48.7335 53.5488L46.8019 56.4285L46.6409 56.5352L45.8897 54.7754Z" fill="#7D4B32"/>
<path d="M46.6409 56.2683L46.9092 56.1616L46.2116 58.6147L45.9434 58.7213L46.6409 56.2683Z" fill="#7D4B32"/>
<path d="M44.2263 59.4146L47.2848 57.9214V58.188L44.2263 59.6812V59.4146Z" fill="#7D4B32"/>
<ellipse rx="1.39129" ry="1.05249" transform="matrix(0.798203 -0.602388 0.607113 0.794616 38.8342 55.0099)" fill="#7D4B32"/>
<ellipse rx="1.39129" ry="1.05249" transform="matrix(0.798203 -0.602388 0.607113 0.794615 50.9123 49.0368)" fill="#7D4B32"/>
<path d="M38.6996 5.50049L63.1136 34.564L50.8798 40.6434L38.6996 5.50049Z" fill="#7D4B32" fill-opacity="0.8"/>
<path d="M26.6268 28.5379L51.0408 40.6965L38.8606 46.6159L17.3978 33.124L26.6268 28.5379Z" fill="#7D4B32"/>
<path d="M4.87384 58.3985V30.5635L24.1268 53.5506V67.9659L4.87384 58.3985Z" stroke="#7D4B32" stroke-width="5"/>
<path d="M2.37384 23.6851L38.8606 46.6159L26.6268 52.6419L2.37384 23.6851Z" fill="#7D4B32" fill-opacity="0.8"/>
<path d="M38.807 5.50049L50.9871 40.91L26.6268 28.538L38.807 5.50049Z" fill="#7D4B32"/>
<rect width="0.669636" height="7.36055" transform="matrix(0.985399 -0.170262 0.17231 0.985043 37.2509 0.114258)" fill="#7D4B32"/>
<rect width="0.669537" height="7.36166" transform="matrix(0.973112 -0.230333 0.233034 0.972469 0.871399 18.3999)" fill="#7D4B32"/>
<rect width="0.669089" height="7.36663" transform="matrix(0.915893 -0.401424 0.405585 0.914057 0.227539 19.9009)" fill="#7D4B32"/>
<rect width="0.669328" height="7.36398" transform="matrix(0.946821 -0.321761 0.325329 0.945601 36.6071 1.60986)" fill="#7D4B32"/>
<path d="M2.37384 23.6851L26.6268 52.6419V62.5076L2.37384 52.6953V23.6851Z" fill="#7D4B32"/>
<path d="M2.37384 51.042L10.4224 55.2549L4.78841 57.1747L2.37384 55.0416V51.042Z" fill="#7D4B32"/>
<path d="M7.68589 53.8686L10.7443 53.6553L13.9101 57.2282L7.4176 59.628L7.68589 53.8686Z" fill="#7D4B32"/>
<path d="M11.9785 56.7484L15.0369 56.3218L18.8466 58.2416L14.0711 62.3478L11.9785 56.7484Z" fill="#7D4B32"/>
<path d="M16.593 59.2012L18.8466 57.4414L25.0171 61.8143L19.9734 65.9205L16.593 59.2012Z" fill="#7D4B32"/>
<path d="M23.4074 61.5479H26.3049V66.6673L21.5294 64.3209L23.4074 61.5479Z" fill="#7D4B32"/>
</svg>
