<svg width="926" height="256" viewBox="0 0 926 256" fill="none" xmlns="http://www.w3.org/2000/svg">
<path d="M119.718 8.90524L86.9811 75.0971L13.7367 85.7457C0.601835 87.6455 -4.66214 103.794 4.86314 113.042L57.8538 164.536L45.3205 237.277C43.0645 250.425 56.9514 260.274 68.5823 254.125L134.106 219.779L199.63 254.125C211.261 260.224 225.148 250.425 222.892 237.277L210.359 164.536L263.349 113.042C272.874 103.794 267.61 87.6455 254.476 85.7457L181.231 75.0971L148.494 8.90524C142.629 -2.8933 125.634 -3.04328 119.718 8.90524Z" fill="#FFF4A3"/>
<path d="M104.58 109.369H112.004C113.526 109.369 114.834 109.596 115.928 110.052C117.031 110.508 117.878 111.182 118.471 112.076C119.063 112.969 119.359 114.067 119.359 115.371C119.359 116.437 119.177 117.353 118.813 118.119C118.457 118.875 117.951 119.509 117.295 120.019C116.648 120.52 115.887 120.921 115.012 121.222L113.713 121.906H107.26L107.232 118.707H112.031C112.751 118.707 113.348 118.579 113.822 118.324C114.296 118.068 114.652 117.713 114.889 117.257C115.135 116.802 115.258 116.273 115.258 115.671C115.258 115.033 115.139 114.482 114.902 114.017C114.665 113.552 114.305 113.197 113.822 112.951C113.339 112.705 112.733 112.582 112.004 112.582H108.682V129.275H104.58V109.369ZM115.709 129.275L111.17 120.402L115.504 120.374L120.098 129.083V129.275H115.709ZM129.08 129.548C127.932 129.548 126.902 129.366 125.99 129.001C125.079 128.628 124.304 128.113 123.666 127.457C123.037 126.8 122.554 126.039 122.217 125.173C121.88 124.298 121.711 123.369 121.711 122.384V121.837C121.711 120.716 121.871 119.691 122.19 118.761C122.509 117.832 122.964 117.025 123.557 116.341C124.158 115.658 124.887 115.134 125.744 114.769C126.601 114.395 127.567 114.208 128.643 114.208C129.691 114.208 130.621 114.382 131.432 114.728C132.243 115.074 132.922 115.567 133.469 116.205C134.025 116.843 134.444 117.608 134.727 118.501C135.009 119.386 135.15 120.37 135.15 121.455V123.095H123.393V120.47H131.281V120.169C131.281 119.623 131.181 119.135 130.981 118.707C130.789 118.269 130.497 117.923 130.106 117.667C129.714 117.412 129.212 117.285 128.602 117.285C128.082 117.285 127.635 117.399 127.262 117.626C126.888 117.854 126.583 118.173 126.346 118.583C126.118 118.994 125.945 119.477 125.826 120.033C125.717 120.58 125.662 121.181 125.662 121.837V122.384C125.662 122.977 125.744 123.524 125.908 124.025C126.081 124.526 126.323 124.959 126.633 125.324C126.952 125.688 127.335 125.971 127.781 126.171C128.237 126.372 128.752 126.472 129.326 126.472C130.037 126.472 130.698 126.335 131.309 126.062C131.928 125.779 132.462 125.356 132.908 124.79L134.822 126.869C134.512 127.315 134.089 127.744 133.551 128.154C133.022 128.564 132.384 128.901 131.637 129.165C130.889 129.421 130.037 129.548 129.08 129.548ZM145.377 125.939V119.349C145.377 118.875 145.3 118.47 145.145 118.132C144.99 117.786 144.748 117.517 144.42 117.326C144.101 117.134 143.686 117.039 143.176 117.039C142.738 117.039 142.36 117.116 142.041 117.271C141.722 117.417 141.476 117.631 141.303 117.914C141.13 118.187 141.043 118.511 141.043 118.884H137.106C137.106 118.255 137.251 117.658 137.543 117.093C137.835 116.528 138.259 116.031 138.815 115.603C139.371 115.165 140.031 114.824 140.797 114.578C141.572 114.332 142.438 114.208 143.395 114.208C144.543 114.208 145.564 114.4 146.457 114.783C147.35 115.165 148.052 115.74 148.563 116.505C149.082 117.271 149.342 118.228 149.342 119.376V125.707C149.342 126.518 149.392 127.183 149.492 127.703C149.593 128.213 149.738 128.66 149.93 129.042V129.275H145.951C145.76 128.874 145.614 128.373 145.514 127.771C145.423 127.16 145.377 126.55 145.377 125.939ZM145.897 120.265L145.924 122.494H143.723C143.203 122.494 142.752 122.553 142.369 122.671C141.986 122.79 141.672 122.958 141.426 123.177C141.18 123.387 140.997 123.633 140.879 123.915C140.77 124.198 140.715 124.508 140.715 124.845C140.715 125.182 140.792 125.488 140.947 125.761C141.102 126.026 141.326 126.235 141.617 126.39C141.909 126.536 142.251 126.609 142.643 126.609C143.235 126.609 143.75 126.49 144.188 126.253C144.625 126.016 144.962 125.725 145.199 125.378C145.445 125.032 145.573 124.704 145.582 124.394L146.621 126.062C146.475 126.436 146.275 126.823 146.02 127.224C145.774 127.625 145.459 128.003 145.076 128.359C144.693 128.705 144.233 128.992 143.695 129.22C143.158 129.439 142.52 129.548 141.781 129.548C140.843 129.548 139.99 129.361 139.225 128.988C138.468 128.605 137.867 128.081 137.42 127.415C136.982 126.741 136.764 125.975 136.764 125.119C136.764 124.344 136.91 123.656 137.201 123.054C137.493 122.453 137.921 121.947 138.486 121.537C139.061 121.117 139.776 120.803 140.633 120.593C141.49 120.374 142.483 120.265 143.613 120.265H145.897ZM161.113 126.048V108.275H165.078V129.275H161.51L161.113 126.048ZM151.762 122.056V121.769C151.762 120.639 151.889 119.613 152.145 118.693C152.4 117.763 152.774 116.966 153.266 116.3C153.758 115.635 154.364 115.12 155.084 114.755C155.804 114.391 156.624 114.208 157.545 114.208C158.411 114.208 159.167 114.391 159.815 114.755C160.471 115.12 161.027 115.639 161.482 116.314C161.947 116.979 162.321 117.768 162.604 118.679C162.886 119.582 163.091 120.57 163.219 121.646V122.275C163.091 123.305 162.886 124.262 162.604 125.146C162.321 126.03 161.947 126.805 161.482 127.47C161.027 128.126 160.471 128.637 159.815 129.001C159.158 129.366 158.393 129.548 157.518 129.548C156.597 129.548 155.777 129.361 155.057 128.988C154.346 128.614 153.744 128.09 153.252 127.415C152.769 126.741 152.4 125.948 152.145 125.037C151.889 124.125 151.762 123.132 151.762 122.056ZM155.699 121.769V122.056C155.699 122.667 155.745 123.236 155.836 123.765C155.936 124.294 156.096 124.763 156.315 125.173C156.542 125.574 156.834 125.889 157.19 126.117C157.554 126.335 157.996 126.445 158.516 126.445C159.19 126.445 159.746 126.294 160.184 125.994C160.621 125.684 160.954 125.26 161.182 124.722C161.419 124.184 161.555 123.565 161.592 122.863V121.072C161.565 120.498 161.482 119.983 161.346 119.527C161.218 119.062 161.027 118.665 160.772 118.337C160.525 118.009 160.216 117.754 159.842 117.572C159.477 117.389 159.044 117.298 158.543 117.298C158.033 117.298 157.595 117.417 157.231 117.654C156.866 117.882 156.57 118.196 156.342 118.597C156.123 118.998 155.959 119.472 155.85 120.019C155.749 120.557 155.699 121.14 155.699 121.769ZM98.4005 144.482V147.271H89.7872V144.482H98.4005ZM91.92 140.832H95.8575V154.818C95.8575 155.246 95.9122 155.574 96.0216 155.802C96.14 156.03 96.3132 156.19 96.5411 156.281C96.7689 156.363 97.0561 156.404 97.4024 156.404C97.6485 156.404 97.8673 156.395 98.0587 156.376C98.2592 156.349 98.4278 156.322 98.5645 156.294L98.5782 159.193C98.241 159.302 97.8764 159.389 97.4844 159.453C97.0925 159.516 96.6596 159.548 96.1856 159.548C95.3197 159.548 94.5632 159.407 93.9161 159.124C93.2781 158.833 92.7859 158.368 92.4395 157.73C92.0932 157.092 91.92 156.253 91.92 155.214V140.832ZM109.393 155.734V144.482H113.33V159.275H109.625L109.393 155.734ZM109.83 152.699L110.992 152.671C110.992 153.656 110.878 154.572 110.65 155.419C110.423 156.258 110.081 156.987 109.625 157.607C109.169 158.218 108.595 158.696 107.902 159.042C107.21 159.38 106.394 159.548 105.455 159.548C104.735 159.548 104.07 159.448 103.459 159.248C102.857 159.038 102.338 158.714 101.9 158.277C101.472 157.83 101.135 157.261 100.889 156.568C100.652 155.866 100.533 155.023 100.533 154.039V144.482H104.471V154.066C104.471 154.503 104.521 154.873 104.621 155.173C104.731 155.474 104.881 155.72 105.072 155.912C105.264 156.103 105.487 156.24 105.742 156.322C106.007 156.404 106.298 156.445 106.617 156.445C107.428 156.445 108.066 156.281 108.531 155.953C109.005 155.624 109.338 155.178 109.529 154.613C109.73 154.039 109.83 153.401 109.83 152.699ZM123.584 144.482V147.271H114.971V144.482H123.584ZM117.104 140.832H121.041V154.818C121.041 155.246 121.096 155.574 121.205 155.802C121.324 156.03 121.497 156.19 121.725 156.281C121.953 156.363 122.24 156.404 122.586 156.404C122.832 156.404 123.051 156.395 123.242 156.376C123.443 156.349 123.611 156.322 123.748 156.294L123.762 159.193C123.425 159.302 123.06 159.389 122.668 159.453C122.276 159.516 121.843 159.548 121.369 159.548C120.503 159.548 119.747 159.407 119.1 159.124C118.462 158.833 117.969 158.368 117.623 157.73C117.277 157.092 117.104 156.253 117.104 155.214V140.832ZM124.842 152.029V151.742C124.842 150.657 124.997 149.659 125.307 148.748C125.617 147.827 126.068 147.029 126.66 146.355C127.253 145.68 127.982 145.156 128.848 144.783C129.714 144.4 130.707 144.208 131.828 144.208C132.949 144.208 133.947 144.4 134.822 144.783C135.697 145.156 136.431 145.68 137.024 146.355C137.625 147.029 138.081 147.827 138.391 148.748C138.701 149.659 138.856 150.657 138.856 151.742V152.029C138.856 153.104 138.701 154.102 138.391 155.023C138.081 155.934 137.625 156.732 137.024 157.415C136.431 158.09 135.702 158.614 134.836 158.988C133.97 159.361 132.977 159.548 131.856 159.548C130.734 159.548 129.736 159.361 128.861 158.988C127.996 158.614 127.262 158.09 126.66 157.415C126.068 156.732 125.617 155.934 125.307 155.023C124.997 154.102 124.842 153.104 124.842 152.029ZM128.779 151.742V152.029C128.779 152.649 128.834 153.227 128.943 153.765C129.053 154.303 129.226 154.777 129.463 155.187C129.709 155.588 130.028 155.902 130.42 156.13C130.812 156.358 131.29 156.472 131.856 156.472C132.402 156.472 132.872 156.358 133.264 156.13C133.656 155.902 133.97 155.588 134.207 155.187C134.444 154.777 134.617 154.303 134.727 153.765C134.845 153.227 134.904 152.649 134.904 152.029V151.742C134.904 151.14 134.845 150.575 134.727 150.046C134.617 149.509 134.44 149.035 134.193 148.624C133.956 148.205 133.642 147.877 133.25 147.64C132.858 147.403 132.384 147.285 131.828 147.285C131.272 147.285 130.798 147.403 130.406 147.64C130.024 147.877 129.709 148.205 129.463 148.624C129.226 149.035 129.053 149.509 128.943 150.046C128.834 150.575 128.779 151.14 128.779 151.742ZM145.213 147.708V159.275H141.275V144.482H144.981L145.213 147.708ZM149.67 144.386L149.602 148.037C149.41 148.009 149.178 147.986 148.904 147.968C148.64 147.941 148.399 147.927 148.18 147.927C147.624 147.927 147.141 148 146.731 148.146C146.329 148.283 145.992 148.488 145.719 148.761C145.454 149.035 145.254 149.367 145.117 149.759C144.99 150.151 144.917 150.598 144.899 151.099L144.106 150.853C144.106 149.896 144.201 149.016 144.393 148.214C144.584 147.403 144.862 146.697 145.227 146.095C145.6 145.494 146.056 145.029 146.594 144.701C147.132 144.373 147.747 144.208 148.44 144.208C148.658 144.208 148.882 144.227 149.109 144.263C149.337 144.29 149.524 144.332 149.67 144.386ZM155.686 144.482V159.275H151.734V144.482H155.686ZM151.488 140.626C151.488 140.052 151.689 139.578 152.09 139.205C152.491 138.831 153.029 138.644 153.703 138.644C154.369 138.644 154.902 138.831 155.303 139.205C155.713 139.578 155.918 140.052 155.918 140.626C155.918 141.201 155.713 141.675 155.303 142.048C154.902 142.422 154.369 142.609 153.703 142.609C153.029 142.609 152.491 142.422 152.09 142.048C151.689 141.675 151.488 141.201 151.488 140.626ZM166.924 155.939V149.349C166.924 148.875 166.846 148.47 166.691 148.132C166.537 147.786 166.295 147.517 165.967 147.326C165.648 147.134 165.233 147.039 164.723 147.039C164.285 147.039 163.907 147.116 163.588 147.271C163.269 147.417 163.023 147.631 162.85 147.914C162.677 148.187 162.59 148.511 162.59 148.884H158.652C158.652 148.255 158.798 147.658 159.09 147.093C159.382 146.528 159.805 146.031 160.361 145.603C160.917 145.165 161.578 144.824 162.344 144.578C163.119 144.332 163.984 144.208 164.941 144.208C166.09 144.208 167.111 144.4 168.004 144.783C168.897 145.165 169.599 145.74 170.109 146.505C170.629 147.271 170.889 148.228 170.889 149.376V155.707C170.889 156.518 170.939 157.183 171.039 157.703C171.139 158.213 171.285 158.66 171.477 159.042V159.275H167.498C167.307 158.874 167.161 158.373 167.061 157.771C166.969 157.16 166.924 156.55 166.924 155.939ZM167.443 150.265L167.471 152.494H165.27C164.75 152.494 164.299 152.553 163.916 152.671C163.533 152.79 163.219 152.958 162.973 153.177C162.727 153.387 162.544 153.633 162.426 153.915C162.316 154.198 162.262 154.508 162.262 154.845C162.262 155.182 162.339 155.488 162.494 155.761C162.649 156.026 162.872 156.235 163.164 156.39C163.456 156.536 163.798 156.609 164.19 156.609C164.782 156.609 165.297 156.49 165.734 156.253C166.172 156.016 166.509 155.725 166.746 155.378C166.992 155.032 167.12 154.704 167.129 154.394L168.168 156.062C168.022 156.436 167.822 156.823 167.566 157.224C167.32 157.625 167.006 158.003 166.623 158.359C166.24 158.705 165.78 158.992 165.242 159.22C164.704 159.439 164.066 159.548 163.328 159.548C162.389 159.548 161.537 159.361 160.772 158.988C160.015 158.605 159.413 158.081 158.967 157.415C158.529 156.741 158.311 155.975 158.311 155.119C158.311 154.344 158.456 153.656 158.748 153.054C159.04 152.453 159.468 151.947 160.033 151.537C160.607 151.117 161.323 150.803 162.18 150.593C163.037 150.374 164.03 150.265 165.16 150.265H167.443ZM178.08 138.275V159.275H174.129V138.275H178.08Z" fill="#282A35"/>
<path d="M448.612 8.90524L415.875 75.0971L342.63 85.7457C329.496 87.6455 324.232 103.794 333.757 113.042L386.748 164.536L374.214 237.277C371.958 250.425 385.845 260.274 397.476 254.125L463 219.779L528.524 254.125C540.155 260.224 554.042 250.425 551.786 237.277L539.252 164.536L592.243 113.042C601.768 103.794 596.504 87.6455 583.369 85.7457L510.125 75.0971L477.388 8.90524C471.523 -2.8933 454.527 -3.04328 448.612 8.90524Z" fill="#FFF4A3"/>
<path d="M416.288 122.671H420.376C420.294 124.011 419.925 125.201 419.269 126.24C418.622 127.279 417.715 128.09 416.548 128.673C415.391 129.257 413.996 129.548 412.365 129.548C411.089 129.548 409.945 129.33 408.933 128.892C407.921 128.445 407.055 127.807 406.335 126.978C405.624 126.149 405.082 125.146 404.708 123.97C404.335 122.794 404.148 121.477 404.148 120.019V118.638C404.148 117.18 404.339 115.863 404.722 114.687C405.114 113.502 405.67 112.495 406.39 111.665C407.119 110.836 407.99 110.198 409.001 109.751C410.013 109.305 411.143 109.082 412.392 109.082C414.051 109.082 415.45 109.382 416.589 109.984C417.738 110.585 418.626 111.415 419.255 112.472C419.893 113.529 420.276 114.733 420.404 116.082H416.302C416.257 115.279 416.097 114.6 415.824 114.044C415.55 113.479 415.135 113.055 414.58 112.773C414.033 112.481 413.303 112.335 412.392 112.335C411.708 112.335 411.111 112.463 410.601 112.718C410.091 112.973 409.662 113.361 409.316 113.88C408.969 114.4 408.71 115.056 408.537 115.849C408.372 116.633 408.29 117.554 408.29 118.611V120.019C408.29 121.049 408.368 121.956 408.523 122.74C408.678 123.514 408.915 124.171 409.234 124.708C409.562 125.237 409.981 125.638 410.492 125.912C411.011 126.176 411.635 126.308 412.365 126.308C413.221 126.308 413.928 126.171 414.484 125.898C415.04 125.624 415.464 125.219 415.755 124.681C416.056 124.143 416.234 123.473 416.288 122.671ZM422.195 122.029V121.742C422.195 120.657 422.35 119.659 422.66 118.748C422.969 117.827 423.421 117.029 424.013 116.355C424.606 115.68 425.335 115.156 426.201 114.783C427.066 114.4 428.06 114.208 429.181 114.208C430.302 114.208 431.3 114.4 432.175 114.783C433.05 115.156 433.784 115.68 434.376 116.355C434.978 117.029 435.434 117.827 435.744 118.748C436.053 119.659 436.208 120.657 436.208 121.742V122.029C436.208 123.104 436.053 124.102 435.744 125.023C435.434 125.934 434.978 126.732 434.376 127.415C433.784 128.09 433.055 128.614 432.189 128.988C431.323 129.361 430.33 129.548 429.208 129.548C428.087 129.548 427.089 129.361 426.214 128.988C425.348 128.614 424.615 128.09 424.013 127.415C423.421 126.732 422.969 125.934 422.66 125.023C422.35 124.102 422.195 123.104 422.195 122.029ZM426.132 121.742V122.029C426.132 122.649 426.187 123.227 426.296 123.765C426.406 124.303 426.579 124.777 426.816 125.187C427.062 125.588 427.381 125.902 427.773 126.13C428.165 126.358 428.643 126.472 429.208 126.472C429.755 126.472 430.225 126.358 430.617 126.13C431.009 125.902 431.323 125.588 431.56 125.187C431.797 124.777 431.97 124.303 432.08 123.765C432.198 123.227 432.257 122.649 432.257 122.029V121.742C432.257 121.14 432.198 120.575 432.08 120.046C431.97 119.509 431.792 119.035 431.546 118.624C431.309 118.205 430.995 117.877 430.603 117.64C430.211 117.403 429.737 117.285 429.181 117.285C428.625 117.285 428.151 117.403 427.759 117.64C427.376 117.877 427.062 118.205 426.816 118.624C426.579 119.035 426.406 119.509 426.296 120.046C426.187 120.575 426.132 121.14 426.132 121.742ZM442.566 117.544V129.275H438.615V114.482H442.32L442.566 117.544ZM442.019 121.359H440.925C440.925 120.329 441.048 119.381 441.294 118.515C441.55 117.64 441.919 116.884 442.402 116.246C442.894 115.598 443.5 115.097 444.22 114.742C444.94 114.386 445.774 114.208 446.722 114.208C447.378 114.208 447.98 114.309 448.527 114.509C449.074 114.701 449.543 115.006 449.935 115.425C450.336 115.835 450.646 116.373 450.865 117.039C451.083 117.695 451.193 118.483 451.193 119.404V129.275H447.255V119.841C447.255 119.167 447.164 118.647 446.982 118.283C446.8 117.918 446.54 117.663 446.203 117.517C445.874 117.371 445.478 117.298 445.013 117.298C444.503 117.298 444.056 117.403 443.673 117.613C443.3 117.822 442.99 118.114 442.744 118.488C442.497 118.852 442.315 119.281 442.197 119.773C442.078 120.265 442.019 120.794 442.019 121.359ZM450.824 120.908L449.415 121.085C449.415 120.119 449.534 119.221 449.771 118.392C450.017 117.563 450.377 116.833 450.851 116.205C451.334 115.576 451.931 115.088 452.642 114.742C453.353 114.386 454.173 114.208 455.103 114.208C455.814 114.208 456.461 114.313 457.044 114.523C457.628 114.723 458.124 115.047 458.535 115.494C458.954 115.931 459.273 116.505 459.492 117.216C459.719 117.927 459.833 118.798 459.833 119.828V129.275H455.882V119.828C455.882 119.144 455.791 118.624 455.609 118.269C455.436 117.904 455.18 117.654 454.843 117.517C454.515 117.371 454.123 117.298 453.667 117.298C453.193 117.298 452.779 117.394 452.423 117.585C452.068 117.768 451.772 118.023 451.535 118.351C451.298 118.679 451.12 119.062 451.001 119.499C450.883 119.928 450.824 120.397 450.824 120.908ZM466.82 117.326V134.962H462.882V114.482H466.533L466.82 117.326ZM476.185 121.714V122.001C476.185 123.077 476.057 124.075 475.802 124.996C475.556 125.916 475.191 126.718 474.708 127.402C474.225 128.076 473.624 128.605 472.904 128.988C472.193 129.361 471.372 129.548 470.443 129.548C469.54 129.548 468.757 129.366 468.091 129.001C467.426 128.637 466.865 128.126 466.41 127.47C465.963 126.805 465.603 126.035 465.33 125.16C465.056 124.285 464.846 123.346 464.701 122.343V121.591C464.846 120.516 465.056 119.531 465.33 118.638C465.603 117.736 465.963 116.957 466.41 116.3C466.865 115.635 467.421 115.12 468.078 114.755C468.743 114.391 469.522 114.208 470.415 114.208C471.354 114.208 472.179 114.386 472.89 114.742C473.61 115.097 474.212 115.608 474.695 116.273C475.187 116.938 475.556 117.731 475.802 118.652C476.057 119.572 476.185 120.593 476.185 121.714ZM472.234 122.001V121.714C472.234 121.085 472.179 120.507 472.07 119.978C471.969 119.44 471.805 118.971 471.578 118.57C471.359 118.169 471.067 117.859 470.703 117.64C470.347 117.412 469.914 117.298 469.404 117.298C468.866 117.298 468.406 117.385 468.023 117.558C467.649 117.731 467.344 117.982 467.107 118.31C466.87 118.638 466.692 119.03 466.574 119.486C466.455 119.942 466.382 120.457 466.355 121.031V122.931C466.4 123.606 466.528 124.212 466.738 124.749C466.947 125.278 467.271 125.697 467.708 126.007C468.146 126.317 468.72 126.472 469.431 126.472C469.951 126.472 470.388 126.358 470.744 126.13C471.099 125.893 471.386 125.57 471.605 125.16C471.833 124.749 471.992 124.276 472.083 123.738C472.184 123.2 472.234 122.621 472.234 122.001ZM482.788 108.275V129.275H478.837V108.275H482.788ZM492.851 129.548C491.703 129.548 490.673 129.366 489.761 129.001C488.85 128.628 488.075 128.113 487.437 127.457C486.808 126.8 486.325 126.039 485.988 125.173C485.65 124.298 485.482 123.369 485.482 122.384V121.837C485.482 120.716 485.641 119.691 485.96 118.761C486.279 117.832 486.735 117.025 487.328 116.341C487.929 115.658 488.658 115.134 489.515 114.769C490.372 114.395 491.338 114.208 492.413 114.208C493.462 114.208 494.391 114.382 495.203 114.728C496.014 115.074 496.693 115.567 497.24 116.205C497.796 116.843 498.215 117.608 498.497 118.501C498.78 119.386 498.921 120.37 498.921 121.455V123.095H487.163V120.47H495.052V120.169C495.052 119.623 494.952 119.135 494.751 118.707C494.56 118.269 494.268 117.923 493.876 117.667C493.484 117.412 492.983 117.285 492.372 117.285C491.853 117.285 491.406 117.399 491.033 117.626C490.659 117.854 490.354 118.173 490.117 118.583C489.889 118.994 489.716 119.477 489.597 120.033C489.488 120.58 489.433 121.181 489.433 121.837V122.384C489.433 122.977 489.515 123.524 489.679 124.025C489.852 124.526 490.094 124.959 490.404 125.324C490.723 125.688 491.106 125.971 491.552 126.171C492.008 126.372 492.523 126.472 493.097 126.472C493.808 126.472 494.469 126.335 495.08 126.062C495.699 125.779 496.233 125.356 496.679 124.79L498.593 126.869C498.283 127.315 497.859 127.744 497.322 128.154C496.793 128.564 496.155 128.901 495.408 129.165C494.66 129.421 493.808 129.548 492.851 129.548ZM508.41 114.482V117.271H499.796V114.482H508.41ZM501.929 110.832H505.867V124.818C505.867 125.246 505.921 125.574 506.031 125.802C506.149 126.03 506.322 126.19 506.55 126.281C506.778 126.363 507.065 126.404 507.412 126.404C507.658 126.404 507.876 126.395 508.068 126.376C508.268 126.349 508.437 126.322 508.574 126.294L508.587 129.193C508.25 129.302 507.885 129.389 507.494 129.453C507.102 129.516 506.669 129.548 506.195 129.548C505.329 129.548 504.572 129.407 503.925 129.124C503.287 128.833 502.795 128.368 502.449 127.73C502.102 127.092 501.929 126.253 501.929 125.214V110.832ZM517.46 129.548C516.312 129.548 515.282 129.366 514.371 129.001C513.459 128.628 512.684 128.113 512.046 127.457C511.417 126.8 510.934 126.039 510.597 125.173C510.26 124.298 510.091 123.369 510.091 122.384V121.837C510.091 120.716 510.251 119.691 510.57 118.761C510.889 117.832 511.344 117.025 511.937 116.341C512.538 115.658 513.268 115.134 514.124 114.769C514.981 114.395 515.947 114.208 517.023 114.208C518.071 114.208 519.001 114.382 519.812 114.728C520.623 115.074 521.302 115.567 521.849 116.205C522.405 116.843 522.824 117.608 523.107 118.501C523.389 119.386 523.531 120.37 523.531 121.455V123.095H511.773V120.47H519.662V120.169C519.662 119.623 519.561 119.135 519.361 118.707C519.169 118.269 518.878 117.923 518.486 117.667C518.094 117.412 517.593 117.285 516.982 117.285C516.462 117.285 516.016 117.399 515.642 117.626C515.268 117.854 514.963 118.173 514.726 118.583C514.498 118.994 514.325 119.477 514.206 120.033C514.097 120.58 514.042 121.181 514.042 121.837V122.384C514.042 122.977 514.124 123.524 514.288 124.025C514.462 124.526 514.703 124.959 515.013 125.324C515.332 125.688 515.715 125.971 516.162 126.171C516.617 126.372 517.132 126.472 517.706 126.472C518.417 126.472 519.078 126.335 519.689 126.062C520.309 125.779 520.842 125.356 521.288 124.79L523.203 126.869C522.893 127.315 522.469 127.744 521.931 128.154C521.402 128.564 520.764 128.901 520.017 129.165C519.27 129.421 518.417 129.548 517.46 129.548ZM418.38 156.076V159.275H407.785V156.076H418.38ZM409.124 139.369V159.275H405.023V139.369H409.124ZM416.999 147.476V150.593H407.785V147.476H416.999ZM418.367 139.369V142.582H407.785V139.369H418.367ZM423.699 144.482L426.146 148.98L428.662 144.482H432.859L428.675 151.714L433.05 159.275H428.839L426.173 154.517L423.507 159.275H419.296L423.671 151.714L419.488 144.482H423.699ZM441.308 159.548C440.16 159.548 439.13 159.366 438.218 159.001C437.307 158.628 436.532 158.113 435.894 157.457C435.265 156.8 434.782 156.039 434.445 155.173C434.108 154.298 433.939 153.369 433.939 152.384V151.837C433.939 150.716 434.098 149.691 434.417 148.761C434.736 147.832 435.192 147.025 435.785 146.341C436.386 145.658 437.115 145.134 437.972 144.769C438.829 144.395 439.795 144.208 440.871 144.208C441.919 144.208 442.848 144.382 443.66 144.728C444.471 145.074 445.15 145.567 445.697 146.205C446.253 146.843 446.672 147.608 446.955 148.501C447.237 149.386 447.378 150.37 447.378 151.455V153.095H435.621V150.47H443.509V150.169C443.509 149.623 443.409 149.135 443.208 148.707C443.017 148.269 442.725 147.923 442.333 147.667C441.941 147.412 441.44 147.285 440.83 147.285C440.31 147.285 439.863 147.399 439.49 147.626C439.116 147.854 438.811 148.173 438.574 148.583C438.346 148.994 438.173 149.477 438.054 150.033C437.945 150.58 437.89 151.181 437.89 151.837V152.384C437.89 152.977 437.972 153.524 438.136 154.025C438.309 154.526 438.551 154.959 438.861 155.324C439.18 155.688 439.563 155.971 440.009 156.171C440.465 156.372 440.98 156.472 441.554 156.472C442.265 156.472 442.926 156.335 443.537 156.062C444.156 155.779 444.69 155.356 445.136 154.79L447.05 156.869C446.74 157.315 446.316 157.744 445.779 158.154C445.25 158.564 444.612 158.901 443.865 159.165C443.117 159.421 442.265 159.548 441.308 159.548ZM453.558 147.708V159.275H449.621V144.482H453.326L453.558 147.708ZM458.015 144.386L457.947 148.037C457.755 148.009 457.523 147.986 457.249 147.968C456.985 147.941 456.744 147.927 456.525 147.927C455.969 147.927 455.486 148 455.076 148.146C454.675 148.283 454.337 148.488 454.064 148.761C453.8 149.035 453.599 149.367 453.462 149.759C453.335 150.151 453.262 150.598 453.244 151.099L452.451 150.853C452.451 149.896 452.546 149.016 452.738 148.214C452.929 147.403 453.207 146.697 453.572 146.095C453.945 145.494 454.401 145.029 454.939 144.701C455.477 144.373 456.092 144.208 456.785 144.208C457.003 144.208 457.227 144.227 457.455 144.263C457.682 144.29 457.869 144.332 458.015 144.386ZM465.712 156.472C466.195 156.472 466.624 156.381 466.997 156.199C467.371 156.007 467.663 155.743 467.872 155.406C468.091 155.059 468.205 154.654 468.214 154.189H471.919C471.91 155.228 471.632 156.153 471.085 156.964C470.538 157.766 469.805 158.4 468.884 158.865C467.964 159.32 466.934 159.548 465.794 159.548C464.646 159.548 463.643 159.357 462.787 158.974C461.939 158.591 461.233 158.063 460.667 157.388C460.102 156.705 459.678 155.912 459.396 155.009C459.113 154.098 458.972 153.123 458.972 152.083V151.687C458.972 150.639 459.113 149.664 459.396 148.761C459.678 147.85 460.102 147.057 460.667 146.382C461.233 145.699 461.939 145.165 462.787 144.783C463.634 144.4 464.628 144.208 465.767 144.208C466.979 144.208 468.041 144.441 468.953 144.906C469.873 145.371 470.593 146.036 471.113 146.902C471.641 147.759 471.91 148.775 471.919 149.951H468.214C468.205 149.458 468.1 149.012 467.9 148.611C467.708 148.21 467.426 147.891 467.052 147.654C466.688 147.408 466.236 147.285 465.699 147.285C465.124 147.285 464.655 147.408 464.29 147.654C463.926 147.891 463.643 148.219 463.443 148.638C463.242 149.048 463.101 149.518 463.019 150.046C462.946 150.566 462.91 151.113 462.91 151.687V152.083C462.91 152.658 462.946 153.209 463.019 153.738C463.092 154.266 463.229 154.736 463.429 155.146C463.639 155.556 463.926 155.88 464.29 156.117C464.655 156.354 465.129 156.472 465.712 156.472ZM478.359 144.482V159.275H474.408V144.482H478.359ZM474.162 140.626C474.162 140.052 474.362 139.578 474.763 139.205C475.164 138.831 475.702 138.644 476.376 138.644C477.042 138.644 477.575 138.831 477.976 139.205C478.386 139.578 478.591 140.052 478.591 140.626C478.591 141.201 478.386 141.675 477.976 142.048C477.575 142.422 477.042 142.609 476.376 142.609C475.702 142.609 475.164 142.422 474.763 142.048C474.362 141.675 474.162 141.201 474.162 140.626ZM489.611 155.187C489.611 154.904 489.529 154.649 489.365 154.421C489.201 154.193 488.895 153.984 488.449 153.792C488.011 153.592 487.378 153.41 486.548 153.246C485.801 153.082 485.104 152.876 484.456 152.63C483.818 152.375 483.262 152.07 482.788 151.714C482.324 151.359 481.959 150.94 481.695 150.457C481.43 149.964 481.298 149.404 481.298 148.775C481.298 148.155 481.43 147.572 481.695 147.025C481.968 146.478 482.356 145.995 482.857 145.576C483.367 145.147 483.987 144.815 484.716 144.578C485.455 144.332 486.284 144.208 487.205 144.208C488.49 144.208 489.593 144.414 490.513 144.824C491.443 145.234 492.154 145.799 492.646 146.519C493.147 147.23 493.398 148.041 493.398 148.953H489.46C489.46 148.57 489.378 148.228 489.214 147.927C489.059 147.617 488.813 147.376 488.476 147.203C488.148 147.02 487.719 146.929 487.191 146.929C486.753 146.929 486.375 147.007 486.056 147.162C485.737 147.307 485.491 147.508 485.318 147.763C485.154 148.009 485.072 148.283 485.072 148.583C485.072 148.811 485.117 149.016 485.208 149.199C485.309 149.372 485.468 149.531 485.687 149.677C485.906 149.823 486.188 149.96 486.535 150.087C486.89 150.206 487.328 150.315 487.847 150.415C488.913 150.634 489.866 150.921 490.705 151.277C491.543 151.623 492.208 152.097 492.701 152.699C493.193 153.291 493.439 154.07 493.439 155.037C493.439 155.693 493.293 156.294 493.001 156.841C492.71 157.388 492.29 157.867 491.744 158.277C491.197 158.678 490.54 158.992 489.775 159.22C489.018 159.439 488.166 159.548 487.218 159.548C485.842 159.548 484.675 159.302 483.718 158.81C482.77 158.318 482.05 157.693 481.558 156.937C481.075 156.171 480.833 155.388 480.833 154.585H484.566C484.584 155.123 484.721 155.556 484.976 155.884C485.24 156.212 485.573 156.449 485.974 156.595C486.384 156.741 486.826 156.814 487.3 156.814C487.811 156.814 488.234 156.746 488.572 156.609C488.909 156.463 489.164 156.272 489.337 156.035C489.52 155.789 489.611 155.506 489.611 155.187ZM502.804 159.548C501.656 159.548 500.626 159.366 499.714 159.001C498.803 158.628 498.028 158.113 497.39 157.457C496.761 156.8 496.278 156.039 495.941 155.173C495.604 154.298 495.435 153.369 495.435 152.384V151.837C495.435 150.716 495.594 149.691 495.913 148.761C496.233 147.832 496.688 147.025 497.281 146.341C497.882 145.658 498.611 145.134 499.468 144.769C500.325 144.395 501.291 144.208 502.367 144.208C503.415 144.208 504.344 144.382 505.156 144.728C505.967 145.074 506.646 145.567 507.193 146.205C507.749 146.843 508.168 147.608 508.451 148.501C508.733 149.386 508.874 150.37 508.874 151.455V153.095H497.117V150.47H505.005V150.169C505.005 149.623 504.905 149.135 504.705 148.707C504.513 148.269 504.221 147.923 503.83 147.667C503.438 147.412 502.936 147.285 502.326 147.285C501.806 147.285 501.359 147.399 500.986 147.626C500.612 147.854 500.307 148.173 500.07 148.583C499.842 148.994 499.669 149.477 499.55 150.033C499.441 150.58 499.386 151.181 499.386 151.837V152.384C499.386 152.977 499.468 153.524 499.632 154.025C499.805 154.526 500.047 154.959 500.357 155.324C500.676 155.688 501.059 155.971 501.505 156.171C501.961 156.372 502.476 156.472 503.05 156.472C503.761 156.472 504.422 156.335 505.033 156.062C505.652 155.779 506.186 155.356 506.632 154.79L508.546 156.869C508.236 157.315 507.813 157.744 507.275 158.154C506.746 158.564 506.108 158.901 505.361 159.165C504.613 159.421 503.761 159.548 502.804 159.548ZM519.115 155.187C519.115 154.904 519.033 154.649 518.869 154.421C518.704 154.193 518.399 153.984 517.953 153.792C517.515 153.592 516.882 153.41 516.052 153.246C515.305 153.082 514.607 152.876 513.96 152.63C513.322 152.375 512.766 152.07 512.292 151.714C511.828 151.359 511.463 150.94 511.199 150.457C510.934 149.964 510.802 149.404 510.802 148.775C510.802 148.155 510.934 147.572 511.199 147.025C511.472 146.478 511.859 145.995 512.361 145.576C512.871 145.147 513.491 144.815 514.22 144.578C514.958 144.332 515.788 144.208 516.708 144.208C517.994 144.208 519.096 144.414 520.017 144.824C520.947 145.234 521.658 145.799 522.15 146.519C522.651 147.23 522.902 148.041 522.902 148.953H518.964C518.964 148.57 518.882 148.228 518.718 147.927C518.563 147.617 518.317 147.376 517.98 147.203C517.652 147.02 517.223 146.929 516.695 146.929C516.257 146.929 515.879 147.007 515.56 147.162C515.241 147.307 514.995 147.508 514.822 147.763C514.658 148.009 514.576 148.283 514.576 148.583C514.576 148.811 514.621 149.016 514.712 149.199C514.813 149.372 514.972 149.531 515.191 149.677C515.41 149.823 515.692 149.96 516.038 150.087C516.394 150.206 516.831 150.315 517.351 150.415C518.417 150.634 519.37 150.921 520.208 151.277C521.047 151.623 521.712 152.097 522.204 152.699C522.697 153.291 522.943 154.07 522.943 155.037C522.943 155.693 522.797 156.294 522.505 156.841C522.214 157.388 521.794 157.867 521.247 158.277C520.701 158.678 520.044 158.992 519.279 159.22C518.522 159.439 517.67 159.548 516.722 159.548C515.346 159.548 514.179 159.302 513.222 158.81C512.274 158.318 511.554 157.693 511.062 156.937C510.579 156.171 510.337 155.388 510.337 154.585H514.07C514.088 155.123 514.225 155.556 514.48 155.884C514.744 156.212 515.077 156.449 515.478 156.595C515.888 156.741 516.33 156.814 516.804 156.814C517.315 156.814 517.738 156.746 518.076 156.609C518.413 156.463 518.668 156.272 518.841 156.035C519.024 155.789 519.115 155.506 519.115 155.187Z" fill="#282A35"/>
<path d="M777.506 8.90524L744.769 75.0971L671.524 85.7457C658.389 87.6455 653.125 103.794 662.651 113.042L715.641 164.536L703.108 237.277C700.852 250.425 714.739 260.274 726.37 254.125L791.894 219.779L857.418 254.125C869.049 260.224 882.935 250.425 880.679 237.277L868.146 164.536L921.137 113.042C930.662 103.794 925.398 87.6455 912.263 85.7457L839.019 75.0971L806.282 8.90524C800.416 -2.8933 783.421 -3.04328 777.506 8.90524Z" fill="#FFF4A3"/>
<path d="M730.307 124.066C730.307 123.71 730.253 123.391 730.143 123.109C730.043 122.817 729.851 122.553 729.569 122.316C729.286 122.07 728.89 121.828 728.379 121.591C727.869 121.354 727.208 121.108 726.397 120.853C725.495 120.561 724.638 120.233 723.827 119.869C723.025 119.504 722.314 119.08 721.694 118.597C721.083 118.105 720.6 117.535 720.245 116.888C719.898 116.241 719.725 115.489 719.725 114.632C719.725 113.803 719.907 113.051 720.272 112.376C720.637 111.693 721.147 111.11 721.803 110.626C722.46 110.134 723.234 109.756 724.128 109.492C725.03 109.227 726.019 109.095 727.094 109.095C728.562 109.095 729.842 109.36 730.936 109.888C732.03 110.417 732.878 111.141 733.479 112.062C734.09 112.983 734.395 114.035 734.395 115.22H730.321C730.321 114.637 730.198 114.126 729.952 113.689C729.715 113.242 729.35 112.891 728.858 112.636C728.375 112.381 727.764 112.253 727.026 112.253C726.315 112.253 725.723 112.363 725.249 112.582C724.775 112.791 724.419 113.078 724.182 113.443C723.945 113.798 723.827 114.199 723.827 114.646C723.827 114.983 723.909 115.289 724.073 115.562C724.246 115.835 724.501 116.091 724.838 116.328C725.176 116.565 725.59 116.788 726.083 116.998C726.575 117.207 727.144 117.412 727.792 117.613C728.876 117.941 729.829 118.31 730.649 118.72C731.478 119.13 732.171 119.591 732.727 120.101C733.283 120.611 733.702 121.19 733.985 121.837C734.267 122.485 734.409 123.218 734.409 124.039C734.409 124.904 734.24 125.679 733.903 126.363C733.566 127.046 733.078 127.625 732.44 128.099C731.802 128.573 731.041 128.933 730.157 129.179C729.273 129.425 728.284 129.548 727.19 129.548C726.206 129.548 725.235 129.421 724.278 129.165C723.321 128.901 722.45 128.505 721.667 127.976C720.892 127.447 720.272 126.773 719.807 125.953C719.342 125.132 719.11 124.162 719.11 123.04H723.225C723.225 123.66 723.321 124.184 723.512 124.613C723.704 125.041 723.973 125.388 724.319 125.652C724.674 125.916 725.094 126.108 725.577 126.226C726.069 126.345 726.607 126.404 727.19 126.404C727.901 126.404 728.484 126.304 728.94 126.103C729.405 125.902 729.747 125.624 729.965 125.269C730.193 124.914 730.307 124.513 730.307 124.066ZM743.063 126.472C743.546 126.472 743.975 126.381 744.348 126.199C744.722 126.007 745.014 125.743 745.223 125.406C745.442 125.059 745.556 124.654 745.565 124.189H749.27C749.261 125.228 748.983 126.153 748.436 126.964C747.889 127.766 747.156 128.4 746.235 128.865C745.314 129.32 744.284 129.548 743.145 129.548C741.997 129.548 740.994 129.357 740.137 128.974C739.29 128.591 738.583 128.063 738.018 127.388C737.453 126.705 737.029 125.912 736.747 125.009C736.464 124.098 736.323 123.123 736.323 122.083V121.687C736.323 120.639 736.464 119.664 736.747 118.761C737.029 117.85 737.453 117.057 738.018 116.382C738.583 115.699 739.29 115.165 740.137 114.783C740.985 114.4 741.978 114.208 743.118 114.208C744.33 114.208 745.392 114.441 746.303 114.906C747.224 115.371 747.944 116.036 748.463 116.902C748.992 117.759 749.261 118.775 749.27 119.951H745.565C745.556 119.458 745.451 119.012 745.251 118.611C745.059 118.21 744.777 117.891 744.403 117.654C744.038 117.408 743.587 117.285 743.049 117.285C742.475 117.285 742.006 117.408 741.641 117.654C741.277 117.891 740.994 118.219 740.794 118.638C740.593 119.048 740.452 119.518 740.37 120.046C740.297 120.566 740.26 121.113 740.26 121.687V122.083C740.26 122.658 740.297 123.209 740.37 123.738C740.443 124.266 740.579 124.736 740.78 125.146C740.989 125.556 741.277 125.88 741.641 126.117C742.006 126.354 742.48 126.472 743.063 126.472ZM750.924 122.029V121.742C750.924 120.657 751.079 119.659 751.389 118.748C751.699 117.827 752.15 117.029 752.743 116.355C753.335 115.68 754.064 115.156 754.93 114.783C755.796 114.4 756.79 114.208 757.911 114.208C759.032 114.208 760.03 114.4 760.905 114.783C761.78 115.156 762.514 115.68 763.106 116.355C763.708 117.029 764.163 117.827 764.473 118.748C764.783 119.659 764.938 120.657 764.938 121.742V122.029C764.938 123.104 764.783 124.102 764.473 125.023C764.163 125.934 763.708 126.732 763.106 127.415C762.514 128.09 761.784 128.614 760.919 128.988C760.053 129.361 759.059 129.548 757.938 129.548C756.817 129.548 755.819 129.361 754.944 128.988C754.078 128.614 753.344 128.09 752.743 127.415C752.15 126.732 751.699 125.934 751.389 125.023C751.079 124.102 750.924 123.104 750.924 122.029ZM754.862 121.742V122.029C754.862 122.649 754.917 123.227 755.026 123.765C755.135 124.303 755.309 124.777 755.545 125.187C755.792 125.588 756.111 125.902 756.503 126.13C756.894 126.358 757.373 126.472 757.938 126.472C758.485 126.472 758.954 126.358 759.346 126.13C759.738 125.902 760.053 125.588 760.29 125.187C760.527 124.777 760.7 124.303 760.809 123.765C760.928 123.227 760.987 122.649 760.987 122.029V121.742C760.987 121.14 760.928 120.575 760.809 120.046C760.7 119.509 760.522 119.035 760.276 118.624C760.039 118.205 759.725 117.877 759.333 117.64C758.941 117.403 758.467 117.285 757.911 117.285C757.355 117.285 756.881 117.403 756.489 117.64C756.106 117.877 755.792 118.205 755.545 118.624C755.309 119.035 755.135 119.509 755.026 120.046C754.917 120.575 754.862 121.14 754.862 121.742ZM771.295 117.708V129.275H767.358V114.482H771.063L771.295 117.708ZM775.753 114.386L775.684 118.037C775.493 118.009 775.26 117.986 774.987 117.968C774.723 117.941 774.481 117.927 774.262 117.927C773.706 117.927 773.223 118 772.813 118.146C772.412 118.283 772.075 118.488 771.801 118.761C771.537 119.035 771.337 119.367 771.2 119.759C771.072 120.151 770.999 120.598 770.981 121.099L770.188 120.853C770.188 119.896 770.284 119.016 770.475 118.214C770.667 117.403 770.945 116.697 771.309 116.095C771.683 115.494 772.139 115.029 772.676 114.701C773.214 114.373 773.829 114.208 774.522 114.208C774.741 114.208 774.964 114.227 775.192 114.263C775.42 114.29 775.607 114.332 775.753 114.386ZM784.147 129.548C782.999 129.548 781.969 129.366 781.057 129.001C780.146 128.628 779.371 128.113 778.733 127.457C778.104 126.8 777.621 126.039 777.284 125.173C776.947 124.298 776.778 123.369 776.778 122.384V121.837C776.778 120.716 776.937 119.691 777.256 118.761C777.575 117.832 778.031 117.025 778.624 116.341C779.225 115.658 779.954 115.134 780.811 114.769C781.668 114.395 782.634 114.208 783.71 114.208C784.758 114.208 785.687 114.382 786.499 114.728C787.31 115.074 787.989 115.567 788.536 116.205C789.092 116.843 789.511 117.608 789.794 118.501C790.076 119.386 790.217 120.37 790.217 121.455V123.095H778.46V120.47H786.348V120.169C786.348 119.623 786.248 119.135 786.047 118.707C785.856 118.269 785.564 117.923 785.172 117.667C784.781 117.412 784.279 117.285 783.669 117.285C783.149 117.285 782.702 117.399 782.329 117.626C781.955 117.854 781.65 118.173 781.413 118.583C781.185 118.994 781.012 119.477 780.893 120.033C780.784 120.58 780.729 121.181 780.729 121.837V122.384C780.729 122.977 780.811 123.524 780.975 124.025C781.148 124.526 781.39 124.959 781.7 125.324C782.019 125.688 782.402 125.971 782.848 126.171C783.304 126.372 783.819 126.472 784.393 126.472C785.104 126.472 785.765 126.335 786.376 126.062C786.995 125.779 787.529 125.356 787.975 124.79L789.889 126.869C789.579 127.315 789.156 127.744 788.618 128.154C788.089 128.564 787.451 128.901 786.704 129.165C785.956 129.421 785.104 129.548 784.147 129.548ZM808.866 109.328V129.275H804.928V113.867L800.198 115.371V112.267L808.442 109.328H808.866ZM828.745 117.572V121.017C828.745 122.512 828.585 123.802 828.266 124.886C827.947 125.962 827.487 126.846 826.885 127.539C826.293 128.222 825.587 128.728 824.766 129.056C823.946 129.384 823.034 129.548 822.032 129.548C821.23 129.548 820.482 129.448 819.79 129.248C819.097 129.038 818.473 128.714 817.917 128.277C817.37 127.839 816.896 127.288 816.495 126.623C816.103 125.948 815.802 125.146 815.592 124.216C815.383 123.287 815.278 122.22 815.278 121.017V117.572C815.278 116.077 815.437 114.796 815.756 113.73C816.085 112.654 816.545 111.775 817.137 111.091C817.739 110.408 818.45 109.906 819.27 109.587C820.09 109.259 821.002 109.095 822.004 109.095C822.807 109.095 823.549 109.2 824.233 109.41C824.926 109.61 825.55 109.925 826.106 110.353C826.662 110.781 827.136 111.333 827.528 112.007C827.92 112.673 828.221 113.47 828.43 114.4C828.64 115.32 828.745 116.378 828.745 117.572ZM824.794 121.537V117.039C824.794 116.318 824.753 115.69 824.67 115.152C824.598 114.614 824.484 114.158 824.329 113.785C824.174 113.402 823.982 113.092 823.754 112.855C823.527 112.618 823.267 112.445 822.975 112.335C822.684 112.226 822.36 112.171 822.004 112.171C821.558 112.171 821.161 112.258 820.815 112.431C820.478 112.604 820.191 112.882 819.954 113.265C819.717 113.639 819.534 114.14 819.407 114.769C819.288 115.389 819.229 116.145 819.229 117.039V121.537C819.229 122.257 819.266 122.89 819.338 123.437C819.42 123.984 819.539 124.453 819.694 124.845C819.858 125.228 820.049 125.542 820.268 125.789C820.496 126.026 820.756 126.199 821.047 126.308C821.348 126.417 821.676 126.472 822.032 126.472C822.469 126.472 822.857 126.386 823.194 126.212C823.54 126.03 823.832 125.748 824.069 125.365C824.315 124.973 824.497 124.462 824.616 123.833C824.734 123.205 824.794 122.439 824.794 121.537ZM844.823 117.572V121.017C844.823 122.512 844.663 123.802 844.344 124.886C844.025 125.962 843.565 126.846 842.963 127.539C842.371 128.222 841.665 128.728 840.844 129.056C840.024 129.384 839.113 129.548 838.11 129.548C837.308 129.548 836.56 129.448 835.868 129.248C835.175 129.038 834.551 128.714 833.995 128.277C833.448 127.839 832.974 127.288 832.573 126.623C832.181 125.948 831.88 125.146 831.67 124.216C831.461 123.287 831.356 122.22 831.356 121.017V117.572C831.356 116.077 831.516 114.796 831.835 113.73C832.163 112.654 832.623 111.775 833.215 111.091C833.817 110.408 834.528 109.906 835.348 109.587C836.169 109.259 837.08 109.095 838.083 109.095C838.885 109.095 839.628 109.2 840.311 109.41C841.004 109.61 841.628 109.925 842.184 110.353C842.74 110.781 843.214 111.333 843.606 112.007C843.998 112.673 844.299 113.47 844.508 114.4C844.718 115.32 844.823 116.378 844.823 117.572ZM840.872 121.537V117.039C840.872 116.318 840.831 115.69 840.749 115.152C840.676 114.614 840.562 114.158 840.407 113.785C840.252 113.402 840.06 113.092 839.833 112.855C839.605 112.618 839.345 112.445 839.053 112.335C838.762 112.226 838.438 112.171 838.083 112.171C837.636 112.171 837.239 112.258 836.893 112.431C836.556 112.604 836.269 112.882 836.032 113.265C835.795 113.639 835.613 114.14 835.485 114.769C835.366 115.389 835.307 116.145 835.307 117.039V121.537C835.307 122.257 835.344 122.89 835.417 123.437C835.499 123.984 835.617 124.453 835.772 124.845C835.936 125.228 836.128 125.542 836.346 125.789C836.574 126.026 836.834 126.199 837.126 126.308C837.426 126.417 837.754 126.472 838.11 126.472C838.547 126.472 838.935 126.386 839.272 126.212C839.618 126.03 839.91 125.748 840.147 125.365C840.393 124.973 840.575 124.462 840.694 123.833C840.812 123.205 840.872 122.439 840.872 121.537ZM847.448 114.249V113.197C847.448 112.44 847.612 111.752 847.94 111.132C848.268 110.513 848.751 110.016 849.389 109.642C850.027 109.268 850.811 109.082 851.741 109.082C852.698 109.082 853.495 109.268 854.133 109.642C854.781 110.016 855.264 110.513 855.583 111.132C855.911 111.752 856.075 112.44 856.075 113.197V114.249C856.075 114.988 855.911 115.667 855.583 116.287C855.264 116.906 854.785 117.403 854.147 117.777C853.509 118.151 852.721 118.337 851.782 118.337C850.834 118.337 850.036 118.151 849.389 117.777C848.751 117.403 848.268 116.906 847.94 116.287C847.612 115.667 847.448 114.988 847.448 114.249ZM850.059 113.197V114.249C850.059 114.568 850.118 114.874 850.237 115.165C850.364 115.448 850.556 115.68 850.811 115.863C851.075 116.036 851.394 116.123 851.768 116.123C852.16 116.123 852.479 116.036 852.725 115.863C852.971 115.68 853.154 115.448 853.272 115.165C853.391 114.874 853.45 114.568 853.45 114.249V113.197C853.45 112.86 853.386 112.55 853.258 112.267C853.14 111.975 852.953 111.743 852.698 111.57C852.452 111.388 852.133 111.296 851.741 111.296C851.376 111.296 851.066 111.388 850.811 111.57C850.556 111.743 850.364 111.975 850.237 112.267C850.118 112.55 850.059 112.86 850.059 113.197ZM856.963 125.447V124.394C856.963 123.647 857.128 122.963 857.456 122.343C857.793 121.723 858.281 121.227 858.919 120.853C859.566 120.479 860.359 120.292 861.297 120.292C862.245 120.292 863.038 120.479 863.676 120.853C864.314 121.227 864.797 121.723 865.126 122.343C865.454 122.963 865.618 123.647 865.618 124.394V125.447C865.618 126.194 865.454 126.878 865.126 127.498C864.807 128.117 864.328 128.614 863.69 128.988C863.052 129.361 862.264 129.548 861.325 129.548C860.377 129.548 859.579 129.361 858.932 128.988C858.285 128.614 857.793 128.117 857.456 127.498C857.128 126.878 856.963 126.194 856.963 125.447ZM859.588 124.394V125.447C859.588 125.775 859.661 126.085 859.807 126.376C859.953 126.668 860.154 126.901 860.409 127.074C860.673 127.247 860.978 127.333 861.325 127.333C861.762 127.333 862.104 127.247 862.35 127.074C862.596 126.901 862.765 126.668 862.856 126.376C862.956 126.085 863.006 125.775 863.006 125.447V124.394C863.006 124.066 862.943 123.761 862.815 123.478C862.687 123.186 862.496 122.954 862.241 122.781C861.995 122.598 861.68 122.507 861.297 122.507C860.915 122.507 860.596 122.598 860.34 122.781C860.094 122.954 859.907 123.186 859.78 123.478C859.652 123.761 859.588 124.066 859.588 124.394ZM862.268 112.212L852.547 127.771L850.633 126.759L860.354 111.201L862.268 112.212ZM747.588 152.029V151.742C747.588 150.657 747.743 149.659 748.053 148.748C748.363 147.827 748.814 147.029 749.407 146.355C749.999 145.68 750.728 145.156 751.594 144.783C752.46 144.4 753.454 144.208 754.575 144.208C755.696 144.208 756.694 144.4 757.569 144.783C758.444 145.156 759.178 145.68 759.77 146.355C760.372 147.029 760.827 147.827 761.137 148.748C761.447 149.659 761.602 150.657 761.602 151.742V152.029C761.602 153.104 761.447 154.102 761.137 155.023C760.827 155.934 760.372 156.732 759.77 157.415C759.178 158.09 758.448 158.614 757.583 158.988C756.717 159.361 755.723 159.548 754.602 159.548C753.481 159.548 752.483 159.361 751.608 158.988C750.742 158.614 750.008 158.09 749.407 157.415C748.814 156.732 748.363 155.934 748.053 155.023C747.743 154.102 747.588 153.104 747.588 152.029ZM751.526 151.742V152.029C751.526 152.649 751.581 153.227 751.69 153.765C751.799 154.303 751.973 154.777 752.21 155.187C752.456 155.588 752.775 155.902 753.167 156.13C753.559 156.358 754.037 156.472 754.602 156.472C755.149 156.472 755.618 156.358 756.01 156.13C756.402 155.902 756.717 155.588 756.954 155.187C757.191 154.777 757.364 154.303 757.473 153.765C757.592 153.227 757.651 152.649 757.651 152.029V151.742C757.651 151.14 757.592 150.575 757.473 150.046C757.364 149.509 757.186 149.035 756.94 148.624C756.703 148.205 756.389 147.877 755.997 147.64C755.605 147.403 755.131 147.285 754.575 147.285C754.019 147.285 753.545 147.403 753.153 147.64C752.77 147.877 752.456 148.205 752.21 148.624C751.973 149.035 751.799 149.509 751.69 150.046C751.581 150.575 751.526 151.14 751.526 151.742ZM767.878 147.64V159.275H763.94V144.482H767.631L767.878 147.64ZM767.303 151.359H766.237C766.237 150.265 766.378 149.281 766.661 148.406C766.943 147.522 767.34 146.77 767.85 146.15C768.361 145.521 768.967 145.042 769.669 144.714C770.379 144.377 771.172 144.208 772.047 144.208C772.74 144.208 773.374 144.309 773.948 144.509C774.522 144.71 775.014 145.029 775.424 145.466C775.844 145.904 776.163 146.483 776.381 147.203C776.609 147.923 776.723 148.802 776.723 149.841V159.275H772.758V149.828C772.758 149.171 772.667 148.661 772.485 148.296C772.303 147.932 772.034 147.677 771.678 147.531C771.332 147.376 770.904 147.298 770.393 147.298C769.864 147.298 769.404 147.403 769.012 147.613C768.629 147.822 768.31 148.114 768.055 148.488C767.809 148.852 767.622 149.281 767.495 149.773C767.367 150.265 767.303 150.794 767.303 151.359ZM795.426 164.962V147.503L795.932 144.482H799.391V164.962H795.426ZM786.075 152.029V151.742C786.075 150.611 786.198 149.586 786.444 148.665C786.699 147.736 787.073 146.943 787.565 146.287C788.057 145.621 788.659 145.111 789.37 144.755C790.09 144.391 790.919 144.208 791.858 144.208C792.76 144.208 793.54 144.391 794.196 144.755C794.852 145.12 795.404 145.635 795.85 146.3C796.306 146.966 796.67 147.749 796.944 148.652C797.217 149.554 797.427 150.543 797.573 151.619V152.248C797.436 153.277 797.226 154.235 796.944 155.119C796.67 156.003 796.306 156.777 795.85 157.443C795.404 158.108 794.848 158.628 794.182 159.001C793.526 159.366 792.742 159.548 791.831 159.548C790.91 159.548 790.09 159.361 789.37 158.988C788.659 158.605 788.057 158.076 787.565 157.402C787.073 156.727 786.699 155.934 786.444 155.023C786.198 154.102 786.075 153.104 786.075 152.029ZM790.012 151.742V152.029C790.012 152.639 790.062 153.214 790.163 153.751C790.263 154.28 790.422 154.749 790.641 155.16C790.869 155.57 791.161 155.893 791.516 156.13C791.872 156.358 792.309 156.472 792.829 156.472C793.549 156.472 794.128 156.317 794.565 156.007C795.012 155.688 795.34 155.255 795.549 154.708C795.768 154.162 795.896 153.537 795.932 152.835V151.044C795.905 150.47 795.827 149.955 795.7 149.499C795.581 149.035 795.399 148.638 795.153 148.31C794.916 147.982 794.606 147.731 794.223 147.558C793.85 147.376 793.394 147.285 792.856 147.285C792.346 147.285 791.908 147.399 791.544 147.626C791.179 147.854 790.883 148.173 790.655 148.583C790.436 148.985 790.272 149.454 790.163 149.992C790.062 150.529 790.012 151.113 790.012 151.742ZM811.245 155.734V144.482H815.182V159.275H811.477L811.245 155.734ZM811.682 152.699L812.844 152.671C812.844 153.656 812.73 154.572 812.503 155.419C812.275 156.258 811.933 156.987 811.477 157.607C811.021 158.218 810.447 158.696 809.754 159.042C809.062 159.38 808.246 159.548 807.307 159.548C806.587 159.548 805.922 159.448 805.311 159.248C804.71 159.038 804.19 158.714 803.753 158.277C803.324 157.83 802.987 157.261 802.741 156.568C802.504 155.866 802.385 155.023 802.385 154.039V144.482H806.323V154.066C806.323 154.503 806.373 154.873 806.473 155.173C806.583 155.474 806.733 155.72 806.924 155.912C807.116 156.103 807.339 156.24 807.594 156.322C807.859 156.404 808.15 156.445 808.469 156.445C809.281 156.445 809.919 156.281 810.383 155.953C810.857 155.624 811.19 155.178 811.381 154.613C811.582 154.039 811.682 153.401 811.682 152.699ZM822.346 144.482V159.275H818.395V144.482H822.346ZM818.149 140.626C818.149 140.052 818.35 139.578 818.751 139.205C819.152 138.831 819.689 138.644 820.364 138.644C821.029 138.644 821.562 138.831 821.963 139.205C822.374 139.578 822.579 140.052 822.579 140.626C822.579 141.201 822.374 141.675 821.963 142.048C821.562 142.422 821.029 142.609 820.364 142.609C819.689 142.609 819.152 142.422 818.751 142.048C818.35 141.675 818.149 141.201 818.149 140.626ZM837.372 156.199V159.275H826.133V156.199H837.372ZM837.153 146.751L827.719 159.275H825.081V156.937L834.473 144.482H837.153V146.751ZM835.758 144.482V147.572H825.299V144.482H835.758Z" fill="#282A35"/>
</svg>
