<svg width="57" height="56" viewBox="0 0 57 56" fill="none" xmlns="http://www.w3.org/2000/svg">
<path d="M10.0309 51.9776C9.75857 53.5298 11.2901 54.7447 12.6426 54.0495L28.0049 46.1537L43.3672 54.0495C44.7197 54.7447 46.2512 53.5298 45.9789 51.9776L43.0749 35.4244L55.403 23.6762C56.5551 22.5782 55.9587 20.5708 54.4153 20.3515L37.2706 17.916L29.6262 2.77307C28.9376 1.40898 27.0722 1.40898 26.3836 2.77307L18.7391 17.916L1.59448 20.3515C0.0510223 20.5708 -0.545378 22.5782 0.606754 23.6762L12.9349 35.4244L10.0309 51.9776ZM27.197 42.2892L14.2969 48.9195L16.7267 35.069C16.8413 34.4161 16.6259 33.7475 16.1571 33.3008L5.98319 23.6054L20.1663 21.5906C20.7526 21.5073 21.2645 21.1328 21.5411 20.5849L28.0049 7.78077L34.4687 20.5849C34.7453 21.1328 35.2572 21.5073 35.8435 21.5906L50.0266 23.6054L39.8526 33.3008C39.3839 33.7475 39.1685 34.4161 39.283 35.069L41.7129 48.9195L28.8128 42.2892C28.3032 42.0272 27.7066 42.0272 27.197 42.2892Z" fill="#D9EEE1"/>
</svg>
