<svg width="100%" height="100%" viewBox="0 0 164 103" version="1.1"
    xmlns="http://www.w3.org/2000/svg"
    xmlns:xlink="http://www.w3.org/1999/xlink" xml:space="preserve"
    xmlns:serif="http://www.serif.com/" style="fill-rule:evenodd;clip-rule:evenodd;stroke-linejoin:round;stroke-miterlimit:2;">
    <path d="M54.883,41.354C54.883,42.879 55.048,44.115 55.337,45.022C55.666,45.928 56.078,46.917 56.655,47.989C56.861,48.319 56.944,48.648 56.944,48.937C56.944,49.349 56.697,49.761 56.161,50.173L53.565,51.904C53.194,52.151 52.823,52.275 52.493,52.275C52.081,52.275 51.669,52.069 51.257,51.698C50.68,51.08 50.186,50.42 49.773,49.761C49.361,49.06 48.949,48.277 48.496,47.33C45.282,51.121 41.243,53.016 36.38,53.016C32.919,53.016 30.158,52.027 28.138,50.049C26.119,48.071 25.089,45.434 25.089,42.137C25.089,38.634 26.325,35.791 28.839,33.648C31.353,31.505 34.691,30.434 38.935,30.434C40.336,30.434 41.779,30.557 43.303,30.763C44.828,30.969 46.394,31.299 48.043,31.67L48.043,28.662C48.043,25.53 47.383,23.346 46.106,22.068C44.787,20.791 42.562,20.173 39.388,20.173C37.946,20.173 36.463,20.337 34.938,20.708C33.413,21.079 31.93,21.533 30.487,22.109C29.828,22.398 29.334,22.563 29.045,22.645C28.757,22.728 28.551,22.769 28.386,22.769C27.809,22.769 27.52,22.357 27.52,21.491L27.52,19.472C27.52,18.813 27.603,18.318 27.809,18.03C28.015,17.741 28.386,17.453 28.963,17.164C30.405,16.423 32.136,15.804 34.155,15.31C36.174,14.774 38.317,14.527 40.584,14.527C45.488,14.527 49.073,15.64 51.381,17.865C53.647,20.09 54.801,23.469 54.801,28.002L54.801,41.354L54.883,41.354ZM38.152,47.618C39.512,47.618 40.913,47.371 42.397,46.876C43.881,46.382 45.199,45.475 46.312,44.239C46.971,43.456 47.466,42.59 47.713,41.601C47.96,40.612 48.125,39.417 48.125,38.016L48.125,36.285C46.93,35.997 45.652,35.75 44.334,35.585C43.015,35.42 41.737,35.337 40.46,35.337C37.699,35.337 35.68,35.873 34.32,36.986C32.96,38.099 32.301,39.665 32.301,41.725C32.301,43.662 32.795,45.104 33.825,46.093C34.814,47.123 36.257,47.618 38.152,47.618ZM71.243,52.069C70.502,52.069 70.007,51.945 69.677,51.656C69.348,51.409 69.059,50.832 68.812,50.049L59.128,18.195C58.881,17.37 58.757,16.835 58.757,16.546C58.757,15.887 59.087,15.516 59.746,15.516L63.785,15.516C64.567,15.516 65.103,15.64 65.392,15.928C65.721,16.175 65.969,16.752 66.216,17.535L73.139,44.816L79.568,17.535C79.774,16.711 80.021,16.175 80.35,15.928C80.68,15.681 81.257,15.516 81.999,15.516L85.296,15.516C86.079,15.516 86.614,15.64 86.944,15.928C87.274,16.175 87.562,16.752 87.727,17.535L94.238,45.145L101.367,17.535C101.615,16.711 101.903,16.175 102.191,15.928C102.521,15.681 103.057,15.516 103.799,15.516L107.631,15.516C108.29,15.516 108.661,15.846 108.661,16.546C108.661,16.752 108.62,16.958 108.579,17.206C108.538,17.453 108.455,17.782 108.29,18.236L98.359,50.091C98.112,50.915 97.823,51.45 97.494,51.698C97.164,51.945 96.628,52.11 95.928,52.11L92.384,52.11C91.601,52.11 91.065,51.986 90.735,51.698C90.406,51.409 90.117,50.873 89.952,50.049L83.565,23.469L77.219,50.008C77.013,50.832 76.765,51.368 76.436,51.656C76.106,51.945 75.529,52.069 74.787,52.069L71.243,52.069ZM124.197,53.181C122.054,53.181 119.911,52.934 117.851,52.439C115.79,51.945 114.183,51.409 113.112,50.791C112.452,50.42 111.999,50.008 111.834,49.637C111.67,49.266 111.587,48.854 111.587,48.483L111.587,46.382C111.587,45.516 111.917,45.104 112.535,45.104C112.782,45.104 113.029,45.145 113.277,45.228C113.524,45.31 113.895,45.475 114.307,45.64C115.708,46.258 117.233,46.753 118.84,47.082C120.488,47.412 122.095,47.577 123.744,47.577C126.34,47.577 128.359,47.123 129.76,46.217C131.161,45.31 131.903,43.991 131.903,42.302C131.903,41.148 131.532,40.2 130.791,39.417C130.049,38.634 128.648,37.934 126.628,37.274L120.653,35.42C117.645,34.472 115.42,33.071 114.06,31.217C112.7,29.403 111.999,27.384 111.999,25.241C111.999,23.511 112.37,21.986 113.112,20.667C113.854,19.348 114.843,18.195 116.079,17.288C117.315,16.34 118.716,15.64 120.365,15.145C122.013,14.651 123.744,14.445 125.557,14.445C126.464,14.445 127.411,14.486 128.318,14.609C129.266,14.733 130.131,14.898 130.997,15.063C131.821,15.269 132.604,15.475 133.346,15.722C134.087,15.969 134.664,16.217 135.076,16.464C135.653,16.793 136.065,17.123 136.313,17.494C136.56,17.824 136.684,18.277 136.684,18.854L136.684,20.791C136.684,21.656 136.354,22.109 135.736,22.109C135.406,22.109 134.87,21.945 134.17,21.615C131.821,20.543 129.184,20.008 126.258,20.008C123.909,20.008 122.054,20.379 120.777,21.162C119.499,21.945 118.84,23.14 118.84,24.829C118.84,25.983 119.252,26.972 120.076,27.755C120.9,28.538 122.425,29.321 124.609,30.022L130.461,31.876C133.428,32.824 135.571,34.142 136.848,35.832C138.126,37.522 138.744,39.458 138.744,41.601C138.744,43.373 138.373,44.981 137.673,46.382C136.931,47.783 135.942,49.019 134.664,50.008C133.387,51.038 131.862,51.78 130.09,52.316C128.236,52.893 126.299,53.181 124.197,53.181Z"/>
    <path d="M131.986,73.209C118.428,83.223 98.73,88.539 81.793,88.539C58.056,88.539 36.669,79.761 20.515,65.173C19.237,64.019 20.391,62.453 21.916,63.36C39.389,73.497 60.941,79.637 83.235,79.637C98.277,79.637 114.801,76.505 130.008,70.077C132.274,69.047 134.211,71.56 131.986,73.209Z" style="fill:rgb(248,149,29);"/>
    <path d="M137.631,66.78C135.901,64.555 126.175,65.709 121.766,66.244C120.447,66.409 120.241,65.255 121.436,64.39C129.184,58.95 141.917,60.516 143.401,62.33C144.884,64.184 142.989,76.918 135.736,83.017C134.623,83.964 133.552,83.47 134.046,82.234C135.695,78.154 139.362,68.964 137.631,66.78Z" style="fill:rgb(248,149,29);"/>
</svg>
