<?xml version="1.0" encoding="utf-8"?>
<svg version="1.1" xmlns:xlink="http://www.w3.org/1999/xlink" width="50px" height="50px" xmlns="http://www.w3.org/2000/svg">
  <g transform="matrix(1 0 0 1 -30 -4056 )">
    <path d="M 41.04817708333333 28.548177083333336  C 41.46050347222223 28.135850694444443  41.66666666666667 27.647569444444443  41.66666666666667 27.083333333333336  L 41.66666666666667 22.916666666666668  C 41.66666666666667 22.352430555555554  41.46050347222223 21.864149305555554  41.04817708333333 21.451822916666668  C 40.63585069444445 21.03949652777778  40.14756944444445 20.833333333333332  39.58333333333333 21  L 23.2421875 21  L 29.39453125 14.680989583333332  C 29.80685763888889 14.268663194444443  30.013020833333332 13.780381944444443  30.013020833333332 13.216145833333332  C 30.013020833333332 12.651909722222216  29.80685763888889 12.163628472222216  29.39453125 11.751302083333332  L 26.432291666666668 8.7890625  C 26.041666666666668 8.3984375  25.553385416666668 8.203125  24.967447916666664 8.203125  C 24.381510416666664 8.203125  23.893229166666664 8.3984375  23.502604166666664 8.7890625  L 11.71875 20.572916666666668  L 8.756510416666668 23.53515625  C 8.365885416666668 23.92578125  8.170572916666668 24.4140625  8.170572916666668 25  C 8.170572916666668 25.5859375  8.365885416666668 26.07421875  8.756510416666668 26.46484375  L 11.71875 29.427083333333336  L 23.502604166666664 41.2109375  C 23.893229166666664 41.6015625  24.381510416666664 41.796875  24.967447916666664 41.796875  C 25.553385416666668 41.796875  26.041666666666668 41.6015625  26.432291666666668 41.2109375  L 29.39453125 38.24869791666667  C 29.785156250000007 37.85807291666667  29.980468750000007 37.369791666666664  29.98046875 36.783854166666664  C 29.980468750000007 36.197916666666664  29.785156250000007 35.709635416666664  29.39453125 35.319010416666664  L 23.2421875 29  L 39.58333333333333 29  C 40.14756944444445 29.166666666666664  40.63585069444445 28.96050347222222  41.04817708333333 28.548177083333336  Z M 46.64713541666667 12.451171875  C 48.882378472222214 16.281467013888886  50 20.464409722222214  50 25  C 50 29.53559027777778  48.882378472222214 33.71853298611111  46.64713541666667 37.548828125  C 44.411892361111114 41.37912326388889  41.37912326388889 44.41189236111111  37.548828125 46.64713541666667  C 33.718532986111114 48.88237847222223  29.53559027777778 50  25 50  C 20.464409722222225 50  16.28146701388889 48.88237847222223  12.451171875 46.64713541666667  C 8.620876736111112 44.41189236111111  5.588107638888889 41.37912326388889  3.3528645833333335 37.548828125  C 1.1176215277777777 33.71853298611111  0 29.53559027777778  0 25  C 0 20.464409722222214  1.1176215277777777 16.281467013888886  3.3528645833333335 12.451171875  C 5.588107638888889 8.62087673611111  8.620876736111112 5.588107638888884  12.451171875 3.3528645833333313  C 16.28146701388889 1.1176215277777735  20.464409722222225 0  25 0  C 29.53559027777778 0  33.718532986111114 1.1176215277777735  37.548828125 3.3528645833333313  C 41.37912326388889 5.588107638888884  44.411892361111114 8.62087673611111  46.64713541666667 12.451171875  Z " fill-rule="nonzero" fill="#38AB63" stroke="none" transform="matrix(1 0 0 1 30 4056 )" />
  </g>
</svg>