<?xml version="1.0" encoding="utf-8"?>
<svg version="1.1" xmlns:xlink="http://www.w3.org/1999/xlink" width="50px" height="50px" xmlns="http://www.w3.org/2000/svg">
  <g transform="matrix(1 0 0 1 -1119 -4056 )">
    <path d="M 41.24348958333333 26.46484375  C 41.63411458333333 26.07421875  41.82942708333333 25.5859375  41.82942708333333 25  C 41.82942708333333 24.4140625  41.63411458333333 23.92578125  41.24348958333333 23.53515625  L 38.28125 20.572916666666668  L 26.497395833333332 8.7890625  C 26.106770833333332 8.3984375  25.618489583333332 8.203125  25.032552083333332 8.203125  C 24.446614583333336 8.203125  23.958333333333336 8.3984375  23.567708333333336 8.7890625  L 20.60546875 11.751302083333332  C 20.21484375 12.141927083333332  20.01953125 12.630208333333332  20.01953125 13.216145833333332  C 20.01953125 13.802083333333332  20.21484375 14.290364583333332  20.60546875 14.680989583333332  L 26.7578125 21  L 10.416666666666668 21  C 9.852430555555557 20.833333333333332  9.364149305555557 21.03949652777778  8.951822916666668 21.451822916666668  C 8.539496527777779 21.864149305555554  8.333333333333332 22.352430555555554  8.333333333333332 22.916666666666668  L 8.333333333333332 27.083333333333336  C 8.333333333333332 27.647569444444443  8.539496527777779 28.135850694444443  8.951822916666668 28.548177083333336  C 9.364149305555557 28.96050347222222  9.852430555555557 29.166666666666664  10.416666666666668 29  L 26.7578125 29  L 20.60546875 35.319010416666664  C 20.193142361111114 35.73133680555555  19.986979166666664 36.21961805555555  19.986979166666664 36.783854166666664  C 19.986979166666664 37.34809027777778  20.193142361111114 37.83637152777777  20.60546875 38.24869791666667  L 23.567708333333336 41.2109375  C 23.958333333333336 41.6015625  24.446614583333336 41.796875  25.032552083333332 41.796875  C 25.618489583333332 41.796875  26.106770833333332 41.6015625  26.497395833333332 41.2109375  L 38.28125 29.427083333333336  L 41.24348958333333 26.46484375  Z M 46.64713541666667 12.451171875  C 48.882378472222214 16.281467013888886  50 20.464409722222214  50 25  C 50 29.53559027777778  48.882378472222214 33.71853298611111  46.64713541666667 37.548828125  C 44.411892361111114 41.37912326388889  41.37912326388889 44.41189236111111  37.548828125 46.64713541666667  C 33.718532986111114 48.88237847222223  29.53559027777778 50  25 50  C 20.464409722222225 50  16.28146701388889 48.88237847222223  12.451171875 46.64713541666667  C 8.620876736111112 44.41189236111111  5.588107638888889 41.37912326388889  3.3528645833333335 37.548828125  C 1.1176215277777777 33.71853298611111  0 29.53559027777778  0 25  C 0 20.464409722222214  1.1176215277777777 16.281467013888886  3.3528645833333335 12.451171875  C 5.588107638888889 8.62087673611111  8.620876736111112 5.588107638888884  12.451171875 3.3528645833333313  C 16.28146701388889 1.1176215277777735  20.464409722222225 0  25 0  C 29.53559027777778 0  33.718532986111114 1.1176215277777735  37.548828125 3.3528645833333313  C 41.37912326388889 5.588107638888884  44.411892361111114 8.62087673611111  46.64713541666667 12.451171875  Z " fill-rule="nonzero" fill="#38AB63" stroke="none" transform="matrix(1 0 0 1 1119 4056 )" />
  </g>
</svg>